<svg width="78px" height="41px" viewBox="0 0 78 41" version="1.1" xmlns="http://www.w3.org/2000/svg" xmlns:xlink="http://www.w3.org/1999/xlink">
  <g id="Page-1" stroke="none" stroke-width="1" fill="none" fill-rule="evenodd">
    <g id="Artboard" transform="translate(-94.000000, -130.000000)" fill="#F96902" fill-rule="nonzero">
      <g id="alibabacloud" transform="translate(94.000000, 130.000000)">
        <path d="M27.7493328,0.121713996 C26.1566908,0.447885477 24.4611132,1.74242384 23.7362753,3.15728324 C23.0114373,4.57214264 23,4.91860924 23,10.8694267 L23.1315288,17.0739331 C23.5990278,19.4948503 25.4661647,21.3895442 27.8551277,21.8635801 C28.578536,21.996948 38,22.0636319 38,21.9172172 C38,21.809943 37.19939,18.6091135 37.1422036,18.5830198 C37.127907,18.5569261 35.4580633,18.1829161 33.4322341,17.7422222 C28.7086352,16.7013728 28.8530309,16.7274665 28.4570149,16.2606789 L28.1138963,15.8475283 L28.1138963,6.16096017 L28.4570149,5.72606486 C28.8516012,5.24768002 28.7072055,5.28537095 33.4322341,4.24452151 L37.1422036,3.40372392 C37.1822341,3.36313369 38,0.162304225 38,0.0695265593 C38,-0.0565930798 28.3812429,0.0028426122 27.7493328,0.136210506 L27.7493328,0.121713996 Z M43,0.153017774 C43.0143609,0.393675141 43.7539493,3.34245277 43.8329344,3.40914095 C43.8587841,3.44973376 45.6711345,3.86291057 47.8539971,4.32972787 L52.1235041,5.37064347 C52.3562253,5.50715608 52.5516564,5.69996087 52.6921972,5.93169408 C52.903303,6.30572782 52.9305888,6.70585694 52.9305888,11.001446 L52.6921972,16.0711979 C52.5481377,16.3000744 52.3534771,16.492119 52.1235041,16.6322485 C51.9511728,16.725032 50.0354236,17.1932991 47.8539971,17.6731641 L43.8329344,18.593751 C43.5052121,19.6654389 43.2272643,20.7519977 43,21.8498742 C43,21.9948485 43.9521302,22.0238434 48.126855,21.9832506 C53.8898995,21.9296101 53.9573959,21.9165624 55.4222116,20.9162396 C56.4762466,20.184162 57.2723828,19.132697 57.6955481,17.9138214 C58,17.0193299 58,16.939594 58,11.0028957 L57.6955481,4.08762076 C57.2723828,2.86874521 56.4762466,1.81728025 55.4222116,1.08520264 C53.9545237,0.0703824127 53.8884634,0.0703824127 48.126855,0.0181916583 C43.9506941,-0.0224011507 43,-0.00210474618 43,0.151568031 L43,0.153017774 Z M3.23,30.94 C2.595,32.265 1.96,33.903 1.307,35.89 L-5.68434189e-14,40.372 C0.245,40.396 0.5,40.405 0.736,40.4 L1.463,40.4 L1.563,40.004 L1.923,38.744 L2.171,37.87 L7.224,37.87 L7.482,38.79 L7.832,40.05 L7.924,40.4 L8.651,40.4 L9.387,40.372 C9.387,40.354 9.203,39.672 8.973,38.844 C8.136,35.816 7.068,32.844 6.166,30.966 L5.686,30 L3.68,30 L3.23,30.94 Z M5.41,32.78 L6.717,36.314 C6.717,36.332 5.817,36.351 4.692,36.351 C3.567,36.351 2.667,36.314 2.667,36.277 C2.667,36.121 3.597,33.645 4.047,32.577 C4.397,31.757 4.572,31.463 4.691,31.463 C4.81,31.463 4.995,31.803 5.409,32.77 L5.41,32.78 Z M10.306,35.2 L10.306,40.4 L11.779,40.4 L11.779,30 L10.306,30 L10.306,35.2 Z M13.619,30.12 C13.4464593,30.2356927 13.3069078,30.3941957 13.214,30.58 C13.067,30.893 13.058,30.967 13.177,31.28 C13.337,31.742 13.833,31.994 14.3,31.85 C14.76,31.703 14.953,31.436 14.953,30.957 C14.953,30.607 14.907,30.507 14.649,30.277 C14.327,29.992 13.996,29.937 13.619,30.13 L13.619,30.12 Z M16.289,35.182 L16.289,40.382 L17.421,40.465 L19.556,40.548 C20.486,40.548 20.614,40.53 21.102,40.281 C21.677,40.021 22.108,39.518 22.28,38.911 C22.335,38.691 22.363,37.715 22.344,36.381 C22.316,34.329 22.307,34.181 22.114,33.813 C21.754,33.15 21.212,32.828 20.209,32.69 C19.675,32.616 18.349,32.69 17.945,32.82 C17.77,32.875 17.761,32.838 17.761,31.45 L17.761,30.004 L16.288,30.004 L16.289,35.182 Z M20.476,34.188 C20.6559017,34.2533459 20.8040129,34.3850003 20.89,34.556 C21.01,34.869 21.01,38.293 20.89,38.596 C20.752,38.973 20.29,39.148 19.417,39.148 C19.0107494,39.1525049 18.6047011,39.1277743 18.202,39.074 L17.76,39.01 L17.76,34.252 L18.294,34.16 C19.114,34.022 20.116,34.03 20.474,34.188 L20.476,34.188 Z M30.922,35.191 L30.922,40.391 L31.824,40.437 L33.701,40.557 C34.961,40.631 35.753,40.427 36.269,39.885 C36.932,39.205 36.949,39.121 36.969,36.802 C36.997,35.118 36.979,34.602 36.869,34.225 C36.621,33.36 35.903,32.817 34.807,32.688 C34.255,32.624 32.81,32.698 32.515,32.818 C32.423,32.846 32.395,32.533 32.395,31.438 L32.395,30.011 L30.922,30.011 L30.922,35.191 Z M35.054,34.146 C35.21,34.201 35.384,34.321 35.431,34.413 C35.531,34.597 35.561,38.443 35.468,38.693 C35.312,39.098 34.068,39.273 32.836,39.07 L32.394,39.006 L32.394,34.254 L32.928,34.162 C33.664,34.042 34.704,34.032 35.054,34.148 L35.054,34.146 Z M49.678,30.092 C48.758,30.258 48.278,30.479 47.81,30.957 C47.074,31.693 47.028,31.96 47.028,35.292 C47.028,38.624 47.074,38.89 47.828,39.636 C48.215,40.032 48.428,40.151 48.978,40.336 C49.578,40.52 49.852,40.548 51.086,40.548 C52.154,40.548 52.706,40.502 53.258,40.373 C53.5517771,40.3145393 53.8408824,40.2346593 54.123,40.134 C54.197,40.088 54.187,39.922 54.077,39.481 C54.0251309,39.257673 53.9542043,39.0392059 53.865,38.828 C53.828,38.791 53.598,38.818 53.359,38.892 C52.539,39.14 51.104,39.242 50.211,39.132 C49.318,39.022 48.987,38.874 48.711,38.515 C48.527,38.275 48.518,38.175 48.518,35.303 C48.518,32.431 48.528,32.33 48.711,32.091 C48.996,31.731 49.318,31.594 50.211,31.474 C51.104,31.354 52.539,31.464 53.359,31.714 L53.856,31.852 C53.93,31.852 54.252,30.572 54.196,30.518 C54.168,30.49 53.828,30.388 53.423,30.278 C52.623,30.066 50.45,29.965 49.686,30.103 L49.678,30.092 Z M55.494,35.2 L55.494,40.4 L56.874,40.4 L56.874,30 L55.494,30 L55.494,35.2 Z M76.394,31.38 L76.394,32.76 L75.869,32.705 L75.133,32.613 C74.82,32.558 73.66,32.743 73.329,32.908 C72.9004657,33.135666 72.548485,33.4845165 72.317,33.911 C72.133,34.251 72.115,34.445 72.087,36.311 C72.05,38.823 72.124,39.191 72.787,39.845 C73.385,40.425 74.094,40.618 75.299,40.545 L77.011,40.445 L77.858,40.39 L77.858,30.01 L76.386,30.01 L76.394,31.38 Z M76.238,34.187 C76.385,34.251 76.394,34.454 76.394,36.635 L76.394,39.009 L76.054,39.073 C75.454,39.193 74.342,39.165 74.02,39.027 C73.854,38.953 73.68,38.825 73.633,38.732 C73.586,38.639 73.541,37.664 73.541,36.56 C73.541,34.36 73.559,34.296 74.047,34.14 C74.342,34.048 75.961,34.085 76.247,34.186 L76.238,34.187 Z M25.778,32.674 C25.3662446,32.7291222 24.9576786,32.8058952 24.554,32.904 C24.057,33.024 23.937,33.088 23.974,33.208 C24.002,33.291 24.066,33.558 24.13,33.815 C24.194,34.072 24.26,34.303 24.296,34.33 C24.332,34.357 24.729,34.312 25.18,34.23 C26.717,33.908 27.757,34.055 27.904,34.607 C27.9504314,34.8526878 27.9751932,35.101979 27.978,35.352 L27.988,35.867 L27.114,35.821 C24.776,35.701 23.368,36.576 23.35,38.149 C23.34,38.894 23.58,39.474 24.077,39.934 C24.657,40.468 25.273,40.634 26.461,40.551 L28.384,40.451 L29.378,40.387 L29.323,34.202 L29.065,33.769 C28.55,32.899 27.325,32.494 25.779,32.692 L25.778,32.674 Z M27.922,37.331 C28.014,37.386 28.005,39.015 27.912,39.015 C27.866,39.015 27.397,39.061 26.862,39.115 C25.325,39.262 24.764,39.032 24.764,38.241 C24.764,37.901 24.81,37.799 25.04,37.597 C25.24,37.442 25.498,37.344 25.758,37.312 L26.328,37.22 C26.494,37.183 27.828,37.27 27.92,37.335 L27.922,37.331 Z M40.457,32.661 L39.233,32.901 C38.616,33.048 38.561,33.085 38.607,33.261 L38.773,33.941 C38.873,34.401 38.893,34.429 39.113,34.374 C40.346,34.052 41.533,33.96 42.013,34.134 C42.446,34.3 42.538,34.484 42.538,35.184 L42.538,35.847 L41.396,35.847 C39.951,35.847 39.288,36.031 38.653,36.602 C38.1175121,37.0541297 37.8501046,37.7484842 37.944,38.443 C38.1,39.943 39.168,40.67 41.082,40.551 L43.005,40.451 L43.999,40.387 L43.971,37.341 C43.943,34.414 43.934,34.276 43.741,33.917 C43.216,32.932 42.029,32.49 40.446,32.675 L40.457,32.661 Z M42.279,37.261 L42.527,37.261 L42.527,39.001 L42.002,39.065 C40.99,39.195 40.005,39.165 39.747,38.991 C39.232,38.651 39.25,37.758 39.775,37.491 C40.135,37.307 40.99,37.178 41.56,37.233 L42.278,37.27 L42.279,37.261 Z M60.115,32.659 C59.5563613,32.7805835 59.0542127,33.0849693 58.688,33.524 C58.218,34.141 58.173,34.444 58.173,36.654 C58.173,38.918 58.237,39.184 58.845,39.82 C59.445,40.437 59.729,40.52 61.118,40.52 C62.545,40.52 62.868,40.42 63.456,39.72 C64.016,39.057 64.082,38.726 64.056,36.398 C64.028,34.502 64.01,34.318 63.826,33.968 C63.5537238,33.4658513 63.1323524,33.0605522 62.62,32.808 C62.15,32.596 60.77,32.504 60.126,32.642 L60.115,32.659 Z M62.14,34.187 C62.61,34.427 62.683,34.757 62.683,36.571 C62.683,38.291 62.619,38.614 62.223,38.964 C61.938,39.222 60.64,39.286 60.171,39.056 C59.619,38.798 59.554,38.531 59.554,36.571 C59.554,34.694 59.609,34.445 60.088,34.187 C60.438,33.994 61.772,33.994 62.14,34.187 L62.14,34.187 Z M13.353,36.571 L13.353,40.391 L14.733,40.391 L14.733,32.751 L13.353,32.751 L13.353,36.571 Z M65.203,32.871 C65.1749465,32.945 65.166,34.325 65.185,35.936 C65.213,38.586 65.231,38.899 65.387,39.194 C65.93,40.216 66.85,40.639 68.35,40.538 L70.966,40.381 L70.966,32.761 L69.566,32.761 L69.566,39.011 L69.133,39.075 C68.333,39.205 67.338,39.158 67.016,38.992 L66.694,38.808 C66.684,38.798 66.648,37.446 66.62,35.808 L66.574,32.808 L65.902,32.78 C65.396,32.762 65.222,32.78 65.184,32.88 L65.203,32.871 Z M37.0421105,12.079 C36.9973156,11.7835652 36.9881002,11.470987 37.015223,11.167 C37.057048,10.699 37.3035168,10.669 40.534499,10.588 L44,10.534 L44,12.466 L40.564374,12.466 C37.6918919,12.466 37.098873,12.412 37.045098,12.076 L37.0421105,12.079 Z" id="Shape"></path>
      </g>
    </g>
  </g>
</svg>
