<svg height="512" viewBox="0 0 64 64" width="512" xmlns="http://www.w3.org/2000/svg"><g fill="#9bc9ff"><path d="m9 49v-38a6 6 0 0 0 -6 6v38a6 6 0 0 1 6-6z"/><path d="m61 55v-38a6 6 0 0 0 -6-6v38a6 6 0 0 1 6 6z"/><path d="m22 55h1v-7h-8v7z"/><path d="m49 51a4 4 0 0 0 -4 4h4z"/><path d="m43 11h4v-8h-4v4z"/><path d="m22 7-3 4h24v-4z"/><path d="m43 7v-4h-24l3 4z"/><path d="m16.252 4.374-5.252 2.626 5.252 2.626a4.984 4.984 0 0 0 0-5.252z"/></g><path d="m49 2h-30a1 1 0 0 0 -.447.1l-8 4a1 1 0 0 0 0 1.79l8 4a1 1 0 0 0 .447.11h30a5 5 0 0 0 0-10zm-31.419 7.173a5.844 5.844 0 0 0 0-4.346l1.12-.559 2.049 2.732-2.05 2.732zm4.919-1.173h19.5v2h-21zm19.5-2h-19.5l-1.5-2h21zm-26.215-.275a3.888 3.888 0 0 1 0 2.55l-2.549-1.275zm28.215-1.725h2v6h-2zm5 6h-1v-6h1a3 3 0 0 1 0 6z" fill="#1e81ce"/><path d="m49 34h-6v-7a1 1 0 0 0 -1-1h-27a1 1 0 0 0 -1 1v28a1 1 0 0 0 1 1h8a1 1 0 0 0 1-1v-7a1 1 0 0 0 -1-1h-7v-11h5a1 1 0 0 0 0-2h-5v-6h10v7a1 1 0 0 0 2 0v-7h13v6h-5a1 1 0 0 0 0 2h5v3a1 1 0 0 0 2 0v-3h5v8h-7a1 1 0 0 0 0 2h7v4.1a5.016 5.016 0 0 0 -3.9 3.9h-8.1v-3a1 1 0 0 0 -2 0v3h-6v-12h6v3a1 1 0 0 0 2 0v-4a1 1 0 0 0 -1-1h-16a1 1 0 0 0 0 2h7v13a1 1 0 0 0 1 1h22a1 1 0 0 0 1-1v-20a1 1 0 0 0 -1-1zm-27 15v5h-6v-5zm24.184 5a3 3 0 0 1 1.816-1.816v1.816z" fill="#1e81ce"/><path d="m15 20h6a1 1 0 0 0 0-2h-6a1 1 0 0 0 0 2z" fill="#1e81ce"/><path d="m15 24h14a1 1 0 0 0 0-2h-14a1 1 0 0 0 0 2z" fill="#1e81ce"/><path d="m55 10a1 1 0 0 0 -1 1v3h-44v-3a1 1 0 0 0 -1-1 7.008 7.008 0 0 0 -7 7v38.21a6.8 6.8 0 0 0 6.79 6.79h46.42a6.8 6.8 0 0 0 6.79-6.79v-38.21a7.008 7.008 0 0 0 -7-7zm-51 7a5.008 5.008 0 0 1 4-4.9v35.97a6.991 6.991 0 0 0 -4 2.034zm56 38.21a4.8 4.8 0 0 1 -4.79 4.79h-46.42a4.8 4.8 0 0 1 -4.79-4.794v-.206a5.006 5.006 0 0 1 5-5 1 1 0 0 0 1-1v-33h44v33a1 1 0 0 0 1 1 5.006 5.006 0 0 1 5 5zm0-5.105a6.991 6.991 0 0 0 -4-2.034v-35.971a5.008 5.008 0 0 1 4 4.9z" fill="#1e81ce"/></svg>
