<svg height="467pt" viewBox="0 0 467 467.682" width="467pt" xmlns="http://www.w3.org/2000/svg"><path d="m17.671875 103.183594c-1.011719-11.371094-.347656-22.824219 1.960937-34 3.097657-14.035156 9.207032-25.683594 18.15625-34.628906 12.511719-12.519532 30.074219-19.382813 52.140626-20.402344 10.628906-.402344 21.273437.324218 31.75 2.164062l2.417968-13.785156c-11.472656-2.011719-23.125-2.800781-34.761718-2.359375-25.71875 1.179687-46.398438 9.421875-61.449219 24.484375-10.863281 10.859375-18.242188 24.824219-21.949219 41.597656-2.597656 12.542969-3.347656 25.398438-2.214844 38.160156zm0 0"/><path d="m8.347656 133.785156c2 8.539063 4.429688 16.972656 7.28125 25.269532l13.246094-4.523438c-2.695312-7.84375-4.996094-15.820312-6.886719-23.898438zm0 0"/><path d="m52.871094 208.121094c-4.832032-8.8125-9.265625-17.675782-13.171875-26.339844l-12.761719 5.757812c4.054688 8.992188 8.652344 18.183594 13.65625 27.3125zm0 0"/><path d="m65.5625 255.222656c4.554688 6.609375 9.40625 13.308594 14.414062 19.894532 1.171876 1.542968 2.355469 3.082031 3.550782 4.621093l11.054687-8.589843c-1.164062-1.496094-2.316406-2.996094-3.457031-4.5-4.882812-6.417969-9.597656-12.9375-14.035156-19.371094zm0 0"/><path d="m115.480469 296.414062c-.703125-.800781-1.398438-1.597656-2.089844-2.390624l-10.566406 9.183593c.707031.8125 1.417969 1.625 2.132812 2.441407 4.054688 4.617187 8.277344 9.277343 12.546875 13.839843 1.914063 2.046875 3.847656 4.085938 5.800782 6.117188l10.089843-9.707031c-1.910156-1.984376-3.800781-3.976563-5.667969-5.972657-4.167968-4.457031-8.289062-9.003906-12.246093-13.511719zm0 0"/><path d="m442.988281 277.761719-12.816406 5.628906c9.53125 21.722656 15.921875 42.445313 18.984375 61.589844 5.777344 36.105469-.605469 64.628906-18.464844 82.488281-8.863281 8.863281-20.375 14.9375-34.222656 18.0625-11.140625 2.507812-23.769531 3.109375-37.535156 1.789062-3.386719-.324218-6.878906-.769531-10.382813-1.324218l-2.1875 13.828125c3.785157.597656 7.5625 1.078125 11.234375 1.433593 5.171875.496094 10.210938.742188 15.113282.742188 9.019531.054688 18.019531-.886719 26.835937-2.808594 16.472656-3.714844 30.28125-11.054687 41.046875-21.816406 21.164062-21.164062 28.90625-53.878906 22.390625-94.601562-3.253906-20.324219-9.980469-42.195313-19.996094-65.011719zm0 0"/><path d="m424.316406 240.804688-12.160156 6.9375c3.863281 6.773437 7.507812 13.601562 10.828125 20.285156l12.539063-6.226563c-3.441407-6.925781-7.210938-13.992187-11.207032-20.996093zm0 0"/><path d="m393.46875 217.816406 11.570312-7.886718c-5.675781-8.328126-11.660156-16.613282-17.789062-24.625l-11.121094 8.5c5.976563 7.8125 11.8125 15.890624 17.339844 24.011718zm0 0"/><path d="m357.507812 170.785156 10.636719-9.097656c-6.554687-7.664062-13.40625-15.246094-20.367187-22.539062l-10.128906 9.667968c6.789062 7.105469 13.46875 14.5 19.859374 21.96875zm0 0"/><path d="m326.171875 410.054688-13.460937 3.851562 7.28125 25.445312c-19.792969-6.121093-38.945313-14.132812-57.199219-23.925781-24.523438-13.101562-47.84375-28.339843-69.691407-45.535156-16.203124-12.691406-31.703124-26.253906-46.433593-40.625l-9.777344 10.015625c15.089844 14.726562 30.96875 28.617188 47.566406 41.617188 22.5 17.710937 46.515625 33.402343 71.769531 46.890624 15.664063 8.351563 31.9375 15.5 48.679688 21.386719l-17.636719 5.046875 3.851563 13.460938 40.90625-11.707032c3.714844-1.066406 5.863281-4.941406 4.800781-8.65625zm0 0"/><path d="m151.21875 55.105469 13.6875-2.925781-5.535156-25.902344c15.320312 5.335937 30.214844 11.820312 44.558594 19.402344 24.203124 12.777343 47.242187 27.648437 68.851562 44.449218 10.191406 7.859375 20.449219 16.390625 30.496094 25.34375 5.570312 4.976563 11.179687 10.183594 16.667968 15.488282 2.382813 2.300781 4.816407 4.691406 7.230469 7.101562l9.898438-9.902344c-2.472657-2.472656-4.960938-4.917968-7.398438-7.273437-5.621093-5.429688-11.363281-10.769531-17.078125-15.867188-10.292968-9.175781-20.8125-17.917969-31.238281-25.964843-10.578125-8.222657-21.507813-16.003907-32.800781-23.34375 6.628906-3.769532 13.285156-7.324219 19.808594-10.566407l-6.226563-12.539062c-7.160156 3.554687-14.472656 7.46875-21.730469 11.625l5.644532 9.847656c-11.574219-7.429687-23.433594-14.355469-35.585938-20.773437-11.269531-5.960938-22.875-11.277344-34.75-15.914063l17.316406-3.699219-2.925781-13.691406-41.609375 8.894531c-3.78125.804688-6.191406 4.527344-5.382812 8.304688zm0 0"/><path d="m66.589844 462.191406c8.757812 1.816406 17.679687 2.730469 26.625 2.730469 3.84375 0 7.691406-.167969 11.535156-.507813l-1.230469-13.945312c-11.367187 1.003906-22.820312.34375-34-1.96875-14.027343-3.09375-25.679687-9.199219-34.625-18.148438-12.519531-12.515624-19.382812-30.078124-20.402343-52.140624-.398438-10.632813.324218-21.273438 2.164062-31.75l-13.785156-2.425782c-2.011719 11.472656-2.8046878 23.125-2.359375 34.761719 1.179687 25.71875 9.417969 46.394531 24.480469 61.457031 10.867187 10.863282 24.832031 18.238282 41.597656 21.9375zm0 0"/><path d="m159.390625 452.507812-4.519531-13.25c-7.847656 2.695313-15.824219 4.996094-23.902344 6.890626l3.164062 13.636718c8.535157-2 16.964844-4.429687 25.257813-7.277344zm0 0"/><path d="m208.460938 415.261719c-8.8125 4.828125-17.671876 9.257812-26.339844 13.167969l5.757812 12.761718c9-4.054687 18.183594-8.652344 27.3125-13.65625zm0 0"/><path d="m247.617188 391.042969 7.941406 11.53125c6.613281-4.554688 13.308594-9.40625 19.898437-14.417969 1.546875-1.171875 3.085938-2.355469 4.625-3.554688l-8.59375-11.050781c-1.496093 1.160157-2.996093 2.316407-4.5 3.457031-6.417969 4.882813-12.9375 9.605469-19.371093 14.035157zm0 0"/><path d="m319.828125 350.632812c2.042969-1.914062 4.082031-3.847656 6.113281-5.800781l-9.707031-10.089843c-1.984375 1.910156-3.972656 3.800781-5.96875 5.667968-4.453125 4.164063-9 8.289063-13.515625 12.25-.792969.699219-1.589844 1.394532-2.386719 2.082032l9.175781 10.578124c.816407-.710937 1.632813-1.421874 2.449219-2.136718 4.621094-4.066406 9.28125-8.289063 13.839844-12.550782zm0 0"/><path d="m452.980469 131.90625c-1.621094-.898438-3.539063-1.121094-5.324219-.609375l-37.261719 10.664063 3.851563 13.460937 25.441406-7.28125c-6.117188 19.789063-14.128906 38.941406-23.921875 57.191406-13.101563 24.523438-28.339844 47.84375-45.539063 69.6875-12.6875 16.203125-26.25 31.703125-40.625 46.433594l10.019532 9.78125c14.722656-15.089844 28.617187-30.96875 41.617187-47.566406 17.710938-22.5 33.402344-46.515625 46.890625-71.773438 8.347656-15.660156 15.496094-31.933593 21.382813-48.675781l5.050781 17.640625 13.457031-3.851563-11.707031-40.90625c-.507812-1.785156-1.707031-3.292968-3.332031-4.195312zm0 0"/><path d="m345.320312 18.976562c36.101563-5.777343 64.628907.609376 82.488282 18.464844 8.859375 8.863282 14.933594 20.375 18.058594 34.222656 2.503906 11.148438 3.109374 23.777344 1.785156 37.539063-.324219 3.378906-.769532 6.871094-1.324219 10.382813l13.828125 2.1875c.601562-3.792969 1.082031-7.570313 1.433594-11.234376 1.464844-15.238281.769531-29.351562-2.066406-41.949218-3.714844-16.476563-11.054688-30.285156-21.816407-41.046875-21.164062-21.164063-53.878906-28.90625-94.601562-22.390625-20.320313 3.253906-42.191407 9.980468-65.003907 19.992187l5.625 12.820313c21.722657-9.53125 42.445313-15.925782 61.59375-18.988282zm0 0"/><path d="m171.125 110.628906-9.101562-10.640625c-7.664063 6.554688-15.246094 13.40625-22.539063 20.371094l9.667969 10.125c7.109375-6.785156 14.5-13.46875 21.972656-19.855469zm0 0"/><path d="m218.152344 74.664062-7.882813-11.570312c-8.332031 5.679688-16.617187 11.664062-24.625 17.789062l8.5 11.121094c7.808594-5.972656 15.886719-11.804687 24.007813-17.339844zm0 0"/><path d="m16.070312 325.171875c.492188 0 .988282-.050781 1.46875-.15625l37.902344-8.097656-2.925781-13.691407-25.902344 5.535157c5.335938-15.320313 11.820313-30.214844 19.402344-44.554688 12.777344-24.207031 27.648437-47.246093 44.449219-68.855469 7.855468-10.183593 16.386718-20.445312 25.34375-30.492187 4.972656-5.570313 10.183594-11.179687 15.488281-16.671875 2.320313-2.398438 4.714844-4.835938 7.105469-7.226562l-9.898438-9.902344c-2.449218 2.449218-4.902344 4.941406-7.277344 7.402344-5.425781 5.621093-10.761718 11.371093-15.855468 17.074218-9.183594 10.300782-17.925782 20.816406-25.96875 31.242188-17.292969 22.246094-32.605469 45.96875-45.757813 70.886718-5.960937 11.273438-11.273437 22.875-15.914062 34.75l-3.699219-17.316406-13.691406 2.925782 8.890625 41.609374c.6875 3.226563 3.539062 5.539063 6.839843 5.539063zm0 0"/><path d="m289.171875 253.976562v-22.90625c-14 7.164063-33.890625 10.855469-54.5 10.855469-20.613281 0-41.5-3.695312-54.5-10.855469v23.785157c0 1.667969 3.441406 5.636719 13.210937 9.171875 10.878907 3.933594 25.300782 6.097656 40.949219 6.097656 15.648438 0 30.359375-2.164062 41.238281-6.097656 9.769532-3.535156 13.601563-7.5 13.601563-9.175782zm0 0"/><path d="m289.171875 188.863281c-14 7.164063-33.890625 10.855469-54.5 10.855469-20.613281 0-41.5-3.6875-54.5-10.855469v23.785157c0 1.667968 3.441406 5.636718 13.210937 9.171874 10.878907 3.9375 25.300782 6.101563 40.949219 6.101563 15.648438 0 30.359375-2.167969 41.238281-6.101563 9.769532-3.535156 13.601563-7.5 13.601563-9.171874zm0 0"/><path d="m179.683594 170.441406c0 1.667969 3.640625 5.632813 13.410156 9.167969 10.882812 3.9375 25.492188 6.109375 41.140625 6.109375 15.652344 0 30.261719-2.171875 41.144531-6.109375 9.769532-3.535156 13.410156-7.5 13.410156-9.167969 0-1.667968-3.640624-5.632812-13.410156-9.171875-10.882812-3.933593-25.492187-6.105469-41.144531-6.105469-15.648437 0-30.257813 2.171876-41.140625 6.105469-9.769531 3.539063-13.410156 7.503907-13.410156 9.171875zm0 0"/><path d="m289.171875 297.355469v-24.078125c-14 7.164062-33.890625 10.851562-54.5 10.851562-20.613281 0-41.5-3.6875-54.5-10.851562v24.078125c0 1.667969 3.441406 5.636719 13.210937 9.171875 11.023438 3.988281 25.707032 6.136718 41.574219 6.097656 9.054688 0 18.09375-.824219 27-2.464844 19.082031-3.65625 27.214844-10.148437 27.214844-12.804687zm0 0"/></svg>
