<svg width="263px" height="211px" viewBox="0 0 263 211" version="1.1" xmlns="http://www.w3.org/2000/svg" xmlns:xlink="http://www.w3.org/1999/xlink">
  <title>Google Cloud Platform</title>
  <g id="Page-1" stroke="none" stroke-width="1" fill="none" fill-rule="evenodd">
    <g id="Artboard" transform="translate(-45.000000, -110.000000)" fill-rule="nonzero">
      <g id="Google_Cloud_Logo" transform="translate(45.000000, 110.000000)">
        <g id="Group">
          <path d="M166.461215,58.082866 L174.453115,58.082866 L197.233178,35.3028037 L198.350156,25.6275701 C155.952181,-11.7990654 91.2461059,-7.755919 53.8194704,34.6420561 C43.4205607,46.4096573 35.884891,60.426947 31.7630841,75.5926791 C34.2959502,74.5543614 37.1119938,74.3813084 39.7549844,75.1207165 L85.315109,67.6007788 C85.315109,67.6007788 87.6277259,63.7621495 88.8390966,63.9981308 C109.102025,41.7372274 143.20919,39.141433 166.618536,58.082866 L166.461215,58.082866 Z" id="Path" fill="#EA4335"></path>
          <path d="M229.688474,75.5926791 C224.449688,56.3051402 213.704673,38.9683801 198.75919,25.7219626 L166.791589,57.6895639 C180.28972,68.717757 187.98271,85.3465732 187.652336,102.777726 L187.652336,108.457009 C203.368692,108.457009 216.111682,121.2 216.111682,136.916355 C216.111682,152.63271 203.368692,165.375701 187.652336,165.375701 L130.733645,165.375701 L125.054361,171.133645 L125.054361,205.272274 L130.733645,210.951558 L187.652336,210.951558 C228.524299,211.266199 261.92352,178.386137 262.238162,137.514174 C262.426947,112.688941 250.203115,89.4683801 229.688474,75.5926791 Z" id="Path" fill="#4285F4"></path>
          <path d="M73.7362928,210.58972 L130.654984,210.58972 L130.654984,165.029595 L73.7362928,165.029595 C69.6774143,165.029595 65.6814642,164.148598 61.9844237,162.465265 L53.9925234,164.950935 L31.0551402,187.730997 L29.0571651,195.722897 C41.9102804,205.445327 57.6109034,210.66838 73.7362928,210.58972 Z" id="Path" fill="#34A853"></path>
          <path d="M73.7362928,62.8018754 C32.8485981,63.0384735 -0.0786604361,96.3747664 0.156060347,137.262461 C0.298909657,160.08972 10.9495327,181.579751 29.0571651,195.486916 L62.0630841,162.480997 C47.7468847,156.015109 41.3753894,139.150312 47.8412773,124.834112 C54.3071651,110.517913 71.1719626,104.146417 85.488162,110.612305 C91.796729,113.459813 96.846729,118.525545 99.7099688,124.834112 L132.715888,91.8281931 C118.682866,73.4531153 96.846729,62.7080997 73.7362928,62.8018754 Z" id="Path" fill="#FBBC05"></path>
        </g>
      </g>
    </g>
  </g>
</svg>
