<svg height="512pt" viewBox="0 -79 512 512" width="512pt" xmlns="http://www.w3.org/2000/svg"><path d="m512 317.792969v17.65625c-.027344 9.738281-7.914062 17.625-17.65625 17.652343h-476.6875c-9.742188-.027343-17.6289062-7.914062-17.65625-17.652343v-17.65625zm0 0" fill="#e6e7e8"/><path d="m512 17.65625v300.136719h-512v-300.136719c.0273438-9.742188 7.914062-17.6289062 17.65625-17.65625h476.6875c9.742188.0273438 17.628906 7.917969 17.65625 17.65625zm0 0" fill="#8697cb"/><path d="m17.65625 0h229.515625v176.550781h-247.171875v-158.894531" fill="#8697cb"/><g fill="#e6e7e8"><path d="m247.171875 35.3125h264.828125v35.308594h-264.828125zm0 0"/><path d="m247.171875 105.929688h264.828125v35.3125h-264.828125zm0 0"/><path d="m0 176.550781h512v35.3125h-512zm0 0"/><path d="m320.617188 282.484375h191.382812v-35.3125h-512v35.3125zm0 0"/><path d="m141.242188 105.929688v70.621093h-35.3125v-70.621093h-105.929688v-35.308594h105.929688v-70.621094h35.3125v70.621094h105.929687v35.308594zm0 0"/></g></svg>