<svg width="1227px" height="40px" viewBox="0 0 1227 235" version="1.1" xmlns="http://www.w3.org/2000/svg" xmlns:xlink="http://www.w3.org/1999/xlink">
  <!-- Generator: Sketch 63.1 (92452) - https://sketch.com -->
  <title>Page 1</title>
  <desc>Created with Sketch.</desc>
  <g id="Page-1" stroke="none" stroke-width="1" fill="none" fill-rule="evenodd">
    <g id="Artboard" transform="translate(-3500.000000, -1139.000000)" fill="#000000">
      <path d="M3638.844,1139.324 L3619.325,1169.282 L3560,1169.28277 L3607.423,1240.64 L3606.96343,1241.39588 L3651.616,1307.139 L3654.90314,1312.08552 L3654.938,1312.03 L3675.871,1342.851 L3655.80355,1374 L3500,1139.32415 L3638.844,1139.324 Z M3684.78889,1139 L3685.27,1139.324 L3807,1139.32415 L3700.074,1305.285 L3679.11,1274.55 L3747,1169.28277 L3707.541,1169.282 L3657.615,1243.038 L3635.907,1211.212 L3664.29,1169.282 L3663.383,1169.282 L3682.901,1139.324 L3684.569,1139.324 L3684.78889,1139 Z" id="Combined-Shape"></path>
      <path d="M3903.08,1308.03 C3914.00333,1308.03 3922.8725,1305.275 3929.6875,1299.765 C3936.5025,1294.255 3939.91,1286.81167 3939.91,1277.435 C3939.91,1274.535 3939.5475,1271.8525 3938.8225,1269.3875 C3938.0975,1266.9225 3937.2275,1264.82 3936.2125,1263.08 C3935.1975,1261.34 3933.72333,1259.64833 3931.79,1258.005 C3929.85667,1256.36167 3928.14083,1255.05667 3926.6425,1254.09 C3925.14417,1253.12333 3923.0175,1252.08417 3920.2625,1250.9725 C3917.5075,1249.86083 3915.3325,1249.03917 3913.7375,1248.5075 C3912.1425,1247.97583 3909.79833,1247.22667 3906.705,1246.26 C3899.165,1243.94 3894.06583,1241.78917 3891.4075,1239.8075 C3888.74917,1237.82583 3887.42,1235.24 3887.42,1232.05 C3887.42,1229.05333 3888.60417,1226.6125 3890.9725,1224.7275 C3893.34083,1222.8425 3896.60333,1221.9 3900.76,1221.9 C3909.65333,1221.9 3916.13,1226.25 3920.19,1234.95 L3920.19,1234.95 L3937.01,1225.235 C3933.53,1218.08167 3928.6725,1212.49917 3922.4375,1208.4875 C3916.2025,1204.47583 3908.97667,1202.47 3900.76,1202.47 C3891.57667,1202.47 3883.7225,1205.20083 3877.1975,1210.6625 C3870.6725,1216.12417 3867.41,1223.44667 3867.41,1232.63 C3867.41,1237.27 3868.23167,1241.33 3869.875,1244.81 C3871.51833,1248.29 3873.91083,1251.16583 3877.0525,1253.4375 C3880.19417,1255.70917 3883.33583,1257.52167 3886.4775,1258.875 C3889.61917,1260.22833 3893.46167,1261.58167 3898.005,1262.935 C3906.22167,1265.255 3911.925,1267.40583 3915.115,1269.3875 C3918.305,1271.36917 3919.9,1274.14833 3919.9,1277.725 C3919.9,1280.81833 3918.595,1283.38 3915.985,1285.41 C3913.375,1287.44 3909.26667,1288.455 3903.66,1288.455 C3892.06,1288.455 3884.27833,1283.28333 3880.315,1272.94 L3880.315,1272.94 L3863.205,1282.945 C3866.00833,1290.67833 3870.84167,1296.7925 3877.705,1301.2875 C3884.56833,1305.7825 3893.02667,1308.03 3903.08,1308.03 Z M3989.21,1308.03 C3996.26667,1308.03 4002.695,1306.31417 4008.495,1302.8825 C4014.295,1299.45083 4018.79,1294.88333 4021.98,1289.18 L4021.98,1289.18 L4005.74,1279.9 C4004.29,1282.89667 4002.09083,1285.24083 3999.1425,1286.9325 C3996.19417,1288.62417 3992.835,1289.47 3989.065,1289.47 C3983.45833,1289.47 3978.81833,1287.60917 3975.145,1283.8875 C3971.47167,1280.16583 3969.635,1275.45333 3969.635,1269.75 C3969.635,1263.95 3971.47167,1259.18917 3975.145,1255.4675 C3978.81833,1251.74583 3983.45833,1249.885 3989.065,1249.885 C3992.73833,1249.885 3996.04917,1250.755 3998.9975,1252.495 C4001.94583,1254.235 4004.145,1256.60333 4005.595,1259.6 L4005.595,1259.6 L4021.69,1250.175 C4018.69333,1244.47167 4014.295,1239.92833 4008.495,1236.545 C4002.695,1233.16167 3996.26667,1231.47 3989.21,1231.47 C3978.28667,1231.47 3969.17583,1235.14333 3961.8775,1242.49 C3954.57917,1249.83667 3950.93,1258.92333 3950.93,1269.75 C3950.93,1280.57667 3954.57917,1289.66333 3961.8775,1297.01 C3969.17583,1304.35667 3978.28667,1308.03 3989.21,1308.03 Z M4062.725,1308.03 C4072.875,1308.03 4080.75333,1304.50167 4086.36,1297.445 L4086.36,1297.445 L4086.36,1306 L4105.065,1306 L4105.065,1233.5 L4086.36,1233.5 L4086.36,1242.055 C4080.75333,1234.99833 4072.875,1231.47 4062.725,1231.47 C4053.05833,1231.47 4044.76917,1235.1675 4037.8575,1242.5625 C4030.94583,1249.9575 4027.49,1259.02 4027.49,1269.75 C4027.49,1280.48 4030.94583,1289.5425 4037.8575,1296.9375 C4044.76917,1304.3325 4053.05833,1308.03 4062.725,1308.03 Z M4066.205,1290.195 C4060.405,1290.195 4055.62,1288.31 4051.85,1284.54 C4048.08,1280.67333 4046.195,1275.74333 4046.195,1269.75 C4046.195,1263.75667 4048.08,1258.85083 4051.85,1255.0325 C4055.62,1251.21417 4060.405,1249.305 4066.205,1249.305 C4072.005,1249.305 4076.81417,1251.21417 4080.6325,1255.0325 C4084.45083,1258.85083 4086.36,1263.75667 4086.36,1269.75 C4086.36,1275.74333 4084.45083,1280.64917 4080.6325,1284.4675 C4076.81417,1288.28583 4072.005,1290.195 4066.205,1290.195 Z M4141.315,1306 L4141.315,1200.15 L4122.61,1200.15 L4122.61,1306 L4141.315,1306 Z M4194.965,1308.03 C4208.885,1308.03 4219.42167,1302.85833 4226.575,1292.515 L4226.575,1292.515 L4211.495,1283.815 C4207.82167,1288.64833 4202.40833,1291.065 4195.255,1291.065 C4184.13833,1291.065 4177.32333,1286.52167 4174.81,1277.435 L4174.81,1277.435 L4229.475,1277.435 C4229.95833,1274.72833 4230.2,1272.16667 4230.2,1269.75 C4230.2,1258.92333 4226.74417,1249.83667 4219.8325,1242.49 C4212.92083,1235.14333 4204.14833,1231.47 4193.515,1231.47 C4182.30167,1231.47 4173.11833,1235.11917 4165.965,1242.4175 C4158.81167,1249.71583 4155.235,1258.82667 4155.235,1269.75 C4155.235,1280.77 4158.86,1289.905 4166.11,1297.155 C4173.36,1304.405 4182.97833,1308.03 4194.965,1308.03 Z M4211.495,1262.935 L4174.52,1262.935 C4175.58333,1258.295 4177.75833,1254.69417 4181.045,1252.1325 C4184.33167,1249.57083 4188.48833,1248.29 4193.515,1248.29 C4197.76833,1248.29 4201.5625,1249.49833 4204.8975,1251.915 C4208.2325,1254.33167 4210.43167,1258.005 4211.495,1262.935 L4211.495,1262.935 Z M4292.84,1308.03 C4302.12,1308.03 4310.62667,1305.87917 4318.36,1301.5775 C4326.09333,1297.27583 4332.135,1291.45167 4336.485,1284.105 L4336.485,1284.105 L4319.23,1274.1 C4316.81333,1278.54667 4313.26083,1282.05083 4308.5725,1284.6125 C4303.88417,1287.17417 4298.64,1288.455 4292.84,1288.455 C4282.98,1288.455 4275.02917,1285.36167 4268.9875,1279.175 C4262.94583,1272.98833 4259.925,1265.01333 4259.925,1255.25 C4259.925,1245.39 4262.94583,1237.36667 4268.9875,1231.18 C4275.02917,1224.99333 4282.98,1221.9 4292.84,1221.9 C4298.64,1221.9 4303.86,1223.18083 4308.5,1225.7425 C4313.14,1228.30417 4316.71667,1231.85667 4319.23,1236.4 L4319.23,1236.4 L4336.485,1226.395 C4332.135,1219.04833 4326.06917,1213.22417 4318.2875,1208.9225 C4310.50583,1204.62083 4302.02333,1202.47 4292.84,1202.47 C4277.56667,1202.47 4264.95167,1207.52083 4254.995,1217.6225 C4245.03833,1227.72417 4240.06,1240.26667 4240.06,1255.25 C4240.06,1270.13667 4245.03833,1282.655 4254.995,1292.805 C4264.95167,1302.955 4277.56667,1308.03 4292.84,1308.03 Z M4368.385,1306 L4368.385,1266.85 C4368.385,1260.85667 4369.835,1256.36167 4372.735,1253.365 C4375.635,1250.36833 4379.50167,1248.87 4384.335,1248.87 C4388.685,1248.87 4392.165,1250.15083 4394.775,1252.7125 C4397.385,1255.27417 4398.69,1258.97167 4398.69,1263.805 L4398.69,1263.805 L4398.69,1306 L4417.395,1306 L4417.395,1261.485 C4417.395,1252.10833 4414.80917,1244.76167 4409.6375,1239.445 C4404.46583,1234.12833 4397.91667,1231.47 4389.99,1231.47 C4380.13,1231.47 4372.92833,1234.85333 4368.385,1241.62 L4368.385,1241.62 L4368.385,1204.5 L4349.68,1204.5 L4349.68,1306 L4368.385,1306 Z M4465.39,1308.03 C4475.54,1308.03 4483.41833,1304.50167 4489.025,1297.445 L4489.025,1297.445 L4489.025,1306 L4507.73,1306 L4507.73,1233.5 L4489.025,1233.5 L4489.025,1242.055 C4483.41833,1234.99833 4475.54,1231.47 4465.39,1231.47 C4455.72333,1231.47 4447.43417,1235.1675 4440.5225,1242.5625 C4433.61083,1249.9575 4430.155,1259.02 4430.155,1269.75 C4430.155,1280.48 4433.61083,1289.5425 4440.5225,1296.9375 C4447.43417,1304.3325 4455.72333,1308.03 4465.39,1308.03 Z M4468.87,1290.195 C4463.07,1290.195 4458.285,1288.31 4454.515,1284.54 C4450.745,1280.67333 4448.86,1275.74333 4448.86,1269.75 C4448.86,1263.75667 4450.745,1258.85083 4454.515,1255.0325 C4458.285,1251.21417 4463.07,1249.305 4468.87,1249.305 C4474.67,1249.305 4479.47917,1251.21417 4483.2975,1255.0325 C4487.11583,1258.85083 4489.025,1263.75667 4489.025,1269.75 C4489.025,1275.74333 4487.11583,1280.64917 4483.2975,1284.4675 C4479.47917,1288.28583 4474.67,1290.195 4468.87,1290.195 Z M4543.98,1306 L4543.98,1265.255 C4543.98,1259.93833 4545.2125,1255.87833 4547.6775,1253.075 C4550.1425,1250.27167 4553.45333,1248.87 4557.61,1248.87 C4561.47667,1248.87 4564.47333,1250.07833 4566.6,1252.495 C4568.72667,1254.91167 4569.79,1258.295 4569.79,1262.645 L4569.79,1262.645 L4569.79,1306 L4588.495,1306 L4588.495,1265.255 C4588.495,1259.93833 4589.67917,1255.87833 4592.0475,1253.075 C4594.41583,1250.27167 4597.72667,1248.87 4601.98,1248.87 C4605.84667,1248.87 4608.84333,1250.07833 4610.97,1252.495 C4613.09667,1254.91167 4614.16,1258.295 4614.16,1262.645 L4614.16,1262.645 L4614.16,1306 L4632.865,1306 L4632.865,1261.34 C4632.865,1252.25333 4630.37583,1245.00333 4625.3975,1239.59 C4620.41917,1234.17667 4613.77333,1231.47 4605.46,1231.47 C4595.89,1231.47 4588.68833,1234.95 4583.855,1241.91 C4579.60167,1234.95 4573.02833,1231.47 4564.135,1231.47 C4555.04833,1231.47 4548.33,1234.70833 4543.98,1241.185 L4543.98,1241.185 L4543.98,1233.5 L4525.275,1233.5 L4525.275,1306 L4543.98,1306 Z M4668.1,1335 L4668.1,1297.445 C4673.61,1304.50167 4681.44,1308.03 4691.59,1308.03 C4701.35333,1308.03 4709.69083,1304.3325 4716.6025,1296.9375 C4723.51417,1289.5425 4726.97,1280.48 4726.97,1269.75 C4726.97,1259.02 4723.51417,1249.9575 4716.6025,1242.5625 C4709.69083,1235.1675 4701.35333,1231.47 4691.59,1231.47 C4681.44,1231.47 4673.61,1234.99833 4668.1,1242.055 L4668.1,1242.055 L4668.1,1233.5 L4649.395,1233.5 L4649.395,1335 L4668.1,1335 Z M4688.11,1290.195 C4682.31,1290.195 4677.525,1288.31 4673.755,1284.54 C4669.985,1280.67333 4668.1,1275.74333 4668.1,1269.75 C4668.1,1263.75667 4669.985,1258.85083 4673.755,1255.0325 C4677.525,1251.21417 4682.31,1249.305 4688.11,1249.305 C4693.91,1249.305 4698.71917,1251.21417 4702.5375,1255.0325 C4706.35583,1258.85083 4708.265,1263.75667 4708.265,1269.75 C4708.265,1275.74333 4706.35583,1280.64917 4702.5375,1284.4675 C4698.71917,1288.28583 4693.91,1290.195 4688.11,1290.195 Z" id="ScaleChamp" fill-rule="nonzero"></path>
    </g>
  </g>
</svg>
