<svg width="100" height="53px" viewBox="0 0 1462 236" version="1.1" xmlns="http://www.w3.org/2000/svg" xmlns:xlink="http://www.w3.org/1999/xlink">
  <!-- Generator: Sketch 63.1 (92452) - https://sketch.com -->
  <title>Page 1</title>
  <desc>Created with Sketch.</desc>
  <g id="Page-1" stroke="none" stroke-width="1" fill="none" fill-rule="evenodd">
    <g id="Artboard" transform="translate(-234.000000, -517.000000)">
      <path d="M637.583984,690.953125 C653.14388,690.953125 665.464844,687.453776 674.546875,680.455078 C683.628906,673.45638 688.169922,664.032552 688.169922,652.183594 C688.169922,644.891927 686.607422,638.527995 683.482422,633.091797 C680.357422,627.655599 675.442057,622.837891 668.736328,618.638672 C662.030599,614.439453 653.14388,610.695964 642.076172,607.408203 C631.008464,604.120443 623.065755,600.735026 618.248047,597.251953 C613.430339,593.76888 611.021484,589.423177 611.021484,584.214844 C611.021484,578.029948 613.251302,573.21224 617.710938,569.761719 C622.170573,566.311198 628.436849,564.585938 636.509766,564.585938 C645.16862,564.585938 651.825521,566.685547 656.480469,570.884766 C661.135417,575.083984 663.462891,580.894531 663.462891,588.316406 L663.462891,588.316406 L688.072266,588.316406 C688.072266,580.113281 685.858724,572.642578 681.431641,565.904297 C677.004557,559.166016 670.917318,553.973958 663.169922,550.328125 C655.422526,546.682292 646.600911,544.859375 636.705078,544.859375 C621.796224,544.859375 609.670573,548.570312 600.328125,555.992188 C590.985677,563.414062 586.314453,572.854167 586.314453,584.3125 C586.314453,597.398438 592.792318,608.010417 605.748047,616.148438 C612.51888,620.380208 621.633464,624.221354 633.091797,627.671875 C644.55013,631.122396 652.476562,634.540365 656.871094,637.925781 C661.265625,641.311198 663.462891,646.128906 663.462891,652.378906 C663.462891,658.108073 661.298177,662.714193 656.96875,666.197266 C652.639323,669.680339 646.177734,671.421875 637.583984,671.421875 C627.623047,671.421875 619.973307,669.208333 614.634766,664.78125 C609.296224,660.354167 606.626953,654.104167 606.626953,646.03125 L606.626953,646.03125 L581.919922,646.03125 C581.919922,654.950521 584.3125,662.763021 589.097656,669.46875 C593.882812,676.174479 600.588542,681.431641 609.214844,685.240234 C617.841146,689.048828 627.297526,690.953125 637.583984,690.953125 Z M751.255859,690.953125 C758.873047,690.953125 765.969401,689.292969 772.544922,685.972656 C779.120443,682.652344 784.328776,678.14388 788.169922,672.447266 C792.011068,666.750651 794.061849,660.614583 794.322266,654.039062 L794.322266,654.039062 L771.958984,654.039062 C771.698568,659.117188 769.615234,663.38151 765.708984,666.832031 C761.802734,670.282552 756.88737,672.007812 750.962891,672.007812 C743.150391,672.007812 737.177083,669.192057 733.042969,663.560547 C728.908854,657.929036 726.841797,649.384115 726.841797,637.925781 L726.841797,637.925781 L726.841797,634.117188 C726.906901,622.789062 729.022786,614.341797 733.189453,608.775391 C737.35612,603.208984 743.280599,600.425781 750.962891,600.425781 C756.952474,600.425781 761.884115,602.378906 765.757812,606.285156 C769.63151,610.191406 771.698568,615.171875 771.958984,621.226562 L771.958984,621.226562 L794.322266,621.226562 C793.931641,609.3125 789.78125,599.693359 781.871094,592.369141 C773.960938,585.044922 763.723307,581.382812 751.158203,581.382812 C736.314453,581.382812 724.595703,586.216797 716.001953,595.884766 C707.408203,605.552734 703.111328,618.427083 703.111328,634.507812 L703.111328,634.507812 L703.111328,636.949219 C703.111328,653.811198 707.440755,667.027344 716.099609,676.597656 C724.758464,686.167969 736.477214,690.953125 751.255859,690.953125 Z M844.908203,690.953125 C855.845703,690.953125 865.090495,687.014323 872.642578,679.136719 C873.423828,683.69401 874.335286,686.981771 875.376953,689 L875.376953,689 L899.595703,689 L899.595703,687.339844 C896.926432,681.675781 895.591797,674.091146 895.591797,664.585938 L895.591797,664.585938 L895.591797,616.929688 C895.396484,605.666667 891.620443,596.926432 884.263672,590.708984 C876.906901,584.491536 867.04362,581.382812 854.673828,581.382812 C846.535807,581.382812 839.16276,582.815104 832.554688,585.679688 C825.946615,588.544271 820.722005,592.499349 816.880859,597.544922 C813.039714,602.590495 811.119141,608.010417 811.119141,613.804688 L811.119141,613.804688 L834.849609,613.804688 C834.849609,609.638021 836.57487,606.203776 840.025391,603.501953 C843.475911,600.80013 847.902995,599.449219 853.306641,599.449219 C859.556641,599.449219 864.211589,601.093099 867.271484,604.380859 C870.33138,607.66862 871.861328,612.046875 871.861328,617.515625 L871.861328,617.515625 L871.861328,624.449219 L857.310547,624.449219 C841.750651,624.449219 829.78776,627.460286 821.421875,633.482422 C813.05599,639.504557 808.873047,648.147135 808.873047,659.410156 C808.873047,668.329427 812.225911,675.816406 818.931641,681.871094 C825.63737,687.925781 834.296224,690.953125 844.908203,690.953125 Z M849.302734,671.910156 C844.224609,671.910156 840.171875,670.559245 837.144531,667.857422 C834.117188,665.155599 832.603516,661.526042 832.603516,656.96875 C832.603516,651.369792 834.817057,647.040365 839.244141,643.980469 C843.671224,640.920573 850.279297,639.390625 859.068359,639.390625 L859.068359,639.390625 L871.861328,639.390625 L871.861328,659.3125 C869.777995,663.153646 866.669271,666.213542 862.535156,668.492188 C858.401042,670.770833 853.990234,671.910156 849.302734,671.910156 Z M945.689453,689 L945.689453,539 L921.958984,539 L921.958984,689 L945.689453,689 Z M1018.05273,690.953125 C1026.8418,690.953125 1034.76823,689.211589 1041.83203,685.728516 C1048.89583,682.245443 1054.54362,677.346354 1058.77539,671.03125 L1058.77539,671.03125 L1045.98242,658.824219 C1039.14648,667.613281 1030.29232,672.007812 1019.41992,672.007812 C1011.67253,672.007812 1005.24349,669.46875 1000.13281,664.390625 C995.022135,659.3125 992.108724,652.411458 991.392578,643.6875 L991.392578,643.6875 L1060.43555,643.6875 L1060.43555,634.117188 C1060.43555,617.320312 1056.51302,604.332031 1048.66797,595.152344 C1040.82292,585.972656 1029.70638,581.382812 1015.31836,581.382812 C1006.26888,581.382812 998.065755,583.69401 990.708984,588.316406 C983.352214,592.938802 977.639323,599.400391 973.570312,607.701172 C969.501302,616.001953 967.466797,625.425781 967.466797,635.972656 L967.466797,635.972656 L967.466797,638.902344 C967.466797,654.657552 972.138021,667.271484 981.480469,676.744141 C990.822917,686.216797 1003.01367,690.953125 1018.05273,690.953125 Z M1036.99805,626.304688 L991.783203,626.304688 C992.889974,618.166667 995.445312,611.81901 999.449219,607.261719 C1003.45312,602.704427 1008.71029,600.425781 1015.2207,600.425781 C1021.79622,600.425781 1026.93945,602.460286 1030.65039,606.529297 C1034.36133,610.598307 1036.47721,616.604167 1036.99805,624.546875 L1036.99805,624.546875 L1036.99805,626.304688 Z M1133.87305,690.953125 C1150.08398,690.953125 1163.07227,686.705078 1172.83789,678.208984 C1182.60352,669.712891 1188.20247,657.880208 1189.63477,642.710938 L1189.63477,642.710938 L1165.02539,642.710938 C1163.72331,652.867188 1160.63086,660.126302 1155.74805,664.488281 C1150.86523,668.85026 1143.57357,671.03125 1133.87305,671.03125 C1123.26107,671.03125 1115.20443,666.994792 1109.70312,658.921875 C1104.20182,650.848958 1101.45117,639.130208 1101.45117,623.765625 L1101.45117,623.765625 L1101.45117,611.167969 C1101.58138,595.998698 1104.52734,584.491536 1110.28906,576.646484 C1116.05078,568.801432 1124.30273,564.878906 1135.04492,564.878906 C1144.28971,564.878906 1151.30469,567.141276 1156.08984,571.666016 C1160.875,576.190755 1163.85352,583.563802 1165.02539,593.785156 L1165.02539,593.785156 L1189.63477,593.785156 C1188.07227,578.22526 1182.50586,566.18099 1172.93555,557.652344 C1163.36523,549.123698 1150.73503,544.859375 1135.04492,544.859375 C1123.39128,544.859375 1113.12109,547.626302 1104.23438,553.160156 C1095.34766,558.69401 1088.52799,566.571615 1083.77539,576.792969 C1079.02279,587.014323 1076.64648,598.830729 1076.64648,612.242188 L1076.64648,612.242188 L1076.64648,625.523438 C1076.8418,638.609375 1079.2832,650.10026 1083.9707,659.996094 C1088.6582,669.891927 1095.3151,677.525391 1103.94141,682.896484 C1112.56771,688.267578 1122.54492,690.953125 1133.87305,690.953125 Z M1232.79883,689 L1232.79883,613.511719 C1237.48633,605.048177 1244.58268,600.816406 1254.08789,600.816406 C1260.20768,600.816406 1264.84635,602.330078 1268.00391,605.357422 C1271.16146,608.384766 1272.74023,613.544271 1272.74023,620.835938 L1272.74023,620.835938 L1272.74023,689 L1296.4707,689 L1296.4707,619.957031 C1296.14518,594.240885 1284.7194,581.382812 1262.19336,581.382812 C1250.3444,581.382812 1240.54622,585.875 1232.79883,594.859375 L1232.79883,594.859375 L1232.79883,539 L1209.06836,539 L1209.06836,689 L1232.79883,689 Z M1353.11133,690.953125 C1364.04883,690.953125 1373.29362,687.014323 1380.8457,679.136719 C1381.62695,683.69401 1382.53841,686.981771 1383.58008,689 L1383.58008,689 L1407.79883,689 L1407.79883,687.339844 C1405.12956,681.675781 1403.79492,674.091146 1403.79492,664.585938 L1403.79492,664.585938 L1403.79492,616.929688 C1403.59961,605.666667 1399.82357,596.926432 1392.4668,590.708984 C1385.11003,584.491536 1375.24674,581.382812 1362.87695,581.382812 C1354.73893,581.382812 1347.36589,582.815104 1340.75781,585.679688 C1334.14974,588.544271 1328.92513,592.499349 1325.08398,597.544922 C1321.24284,602.590495 1319.32227,608.010417 1319.32227,613.804688 L1319.32227,613.804688 L1343.05273,613.804688 C1343.05273,609.638021 1344.77799,606.203776 1348.22852,603.501953 C1351.67904,600.80013 1356.10612,599.449219 1361.50977,599.449219 C1367.75977,599.449219 1372.41471,601.093099 1375.47461,604.380859 C1378.53451,607.66862 1380.06445,612.046875 1380.06445,617.515625 L1380.06445,617.515625 L1380.06445,624.449219 L1365.51367,624.449219 C1349.95378,624.449219 1337.99089,627.460286 1329.625,633.482422 C1321.25911,639.504557 1317.07617,648.147135 1317.07617,659.410156 C1317.07617,668.329427 1320.42904,675.816406 1327.13477,681.871094 C1333.84049,687.925781 1342.49935,690.953125 1353.11133,690.953125 Z M1357.50586,671.910156 C1352.42773,671.910156 1348.375,670.559245 1345.34766,667.857422 C1342.32031,665.155599 1340.80664,661.526042 1340.80664,656.96875 C1340.80664,651.369792 1343.02018,647.040365 1347.44727,643.980469 C1351.87435,640.920573 1358.48242,639.390625 1367.27148,639.390625 L1367.27148,639.390625 L1380.06445,639.390625 L1380.06445,659.3125 C1377.98112,663.153646 1374.8724,666.213542 1370.73828,668.492188 C1366.60417,670.770833 1362.19336,671.910156 1357.50586,671.910156 Z M1452.33008,689 L1452.33008,612.4375 C1456.30143,604.690104 1463.03971,600.816406 1472.54492,600.816406 C1484.91471,600.816406 1491.26237,607.033854 1491.58789,619.46875 L1491.58789,619.46875 L1491.58789,689 L1515.31836,689 L1515.2207,616.539062 C1516.58789,611.851562 1518.98047,608.059245 1522.39844,605.162109 C1525.81641,602.264974 1530.22721,600.816406 1535.63086,600.816406 C1542.40169,600.816406 1547.25195,602.378906 1550.18164,605.503906 C1553.11133,608.628906 1554.57617,613.544271 1554.57617,620.25 L1554.57617,620.25 L1554.57617,689 L1578.30664,689 L1578.30664,619.566406 C1578.17643,607.001302 1575.26302,597.496094 1569.56641,591.050781 C1563.86979,584.605469 1555.19466,581.382812 1543.54102,581.382812 C1529.60872,581.382812 1518.80143,586.786458 1511.11914,597.59375 C1505.91081,586.786458 1496.24284,581.382812 1482.11523,581.382812 C1469.22461,581.382812 1459.06836,585.71224 1451.64648,594.371094 L1451.64648,594.371094 L1450.96289,583.335938 L1428.59961,583.335938 L1428.59961,689 L1452.33008,689 Z M1626.35352,729.625 L1626.35352,679.527344 C1633.31966,687.144531 1642.59701,690.953125 1654.18555,690.953125 C1666.68555,690.953125 1676.64648,686.086589 1684.06836,676.353516 C1691.49023,666.620443 1695.20117,653.583333 1695.20117,637.242188 L1695.20117,637.242188 L1695.20117,635.777344 C1695.20117,618.720052 1691.53906,605.389974 1684.21484,595.787109 C1676.89062,586.184245 1666.7832,581.382812 1653.89258,581.382812 C1641.91341,581.382812 1632.44076,585.614583 1625.47461,594.078125 L1625.47461,594.078125 L1624.49805,583.335938 L1602.62305,583.335938 L1602.62305,729.625 L1626.35352,729.625 Z M1647.44727,672.007812 C1637.68164,672.007812 1630.65039,667.90625 1626.35352,659.703125 L1626.35352,659.703125 L1626.35352,612.828125 C1630.58529,604.820312 1637.55143,600.816406 1647.25195,600.816406 C1655.06445,600.816406 1661.07031,603.908854 1665.26953,610.09375 C1669.46875,616.278646 1671.56836,624.644531 1671.56836,635.191406 C1671.56836,647.561198 1669.4362,656.789714 1665.17188,662.876953 C1660.90755,668.964193 1654.99935,672.007812 1647.44727,672.007812 Z" id="ScaleChamp" fill="yellow" fill-rule="nonzero"></path>
      <path d="M382.369,517.324 L363.474193,546.362899 L364.957,547.324 L294,547.324595 L345.666,625.174 L345.782,625.001 L408.295,723.583 L389.803547,752.324595 L234,517.324595 L382.369,517.324 Z M418.788893,517 L419.269,517.324 L541,517.324595 L428.315,692.467 L428.361266,692.357928 L408.096,660.523 L481,547.324595 L441.541,547.324 L387.205,627.704 L366.229,594.753 L398.29,547.324 L397.38,547.324 L416.901,517.324 L418.569,517.324 L418.788893,517 Z" id="Combined-Shape" fill="#0054FF"></path>
      <path d="M637.583984,690.953125 C653.14388,690.953125 665.464844,687.453776 674.546875,680.455078 C683.628906,673.45638 688.169922,664.032552 688.169922,652.183594 C688.169922,644.891927 686.607422,638.527995 683.482422,633.091797 C680.357422,627.655599 675.442057,622.837891 668.736328,618.638672 C662.030599,614.439453 653.14388,610.695964 642.076172,607.408203 C631.008464,604.120443 623.065755,600.735026 618.248047,597.251953 C613.430339,593.76888 611.021484,589.423177 611.021484,584.214844 C611.021484,578.029948 613.251302,573.21224 617.710938,569.761719 C622.170573,566.311198 628.436849,564.585938 636.509766,564.585938 C645.16862,564.585938 651.825521,566.685547 656.480469,570.884766 C661.135417,575.083984 663.462891,580.894531 663.462891,588.316406 L663.462891,588.316406 L688.072266,588.316406 C688.072266,580.113281 685.858724,572.642578 681.431641,565.904297 C677.004557,559.166016 670.917318,553.973958 663.169922,550.328125 C655.422526,546.682292 646.600911,544.859375 636.705078,544.859375 C621.796224,544.859375 609.670573,548.570312 600.328125,555.992188 C590.985677,563.414062 586.314453,572.854167 586.314453,584.3125 C586.314453,597.398438 592.792318,608.010417 605.748047,616.148438 C612.51888,620.380208 621.633464,624.221354 633.091797,627.671875 C644.55013,631.122396 652.476562,634.540365 656.871094,637.925781 C661.265625,641.311198 663.462891,646.128906 663.462891,652.378906 C663.462891,658.108073 661.298177,662.714193 656.96875,666.197266 C652.639323,669.680339 646.177734,671.421875 637.583984,671.421875 C627.623047,671.421875 619.973307,669.208333 614.634766,664.78125 C609.296224,660.354167 606.626953,654.104167 606.626953,646.03125 L606.626953,646.03125 L581.919922,646.03125 C581.919922,654.950521 584.3125,662.763021 589.097656,669.46875 C593.882812,676.174479 600.588542,681.431641 609.214844,685.240234 C617.841146,689.048828 627.297526,690.953125 637.583984,690.953125 Z M751.255859,690.953125 C758.873047,690.953125 765.969401,689.292969 772.544922,685.972656 C779.120443,682.652344 784.328776,678.14388 788.169922,672.447266 C792.011068,666.750651 794.061849,660.614583 794.322266,654.039062 L794.322266,654.039062 L771.958984,654.039062 C771.698568,659.117188 769.615234,663.38151 765.708984,666.832031 C761.802734,670.282552 756.88737,672.007812 750.962891,672.007812 C743.150391,672.007812 737.177083,669.192057 733.042969,663.560547 C728.908854,657.929036 726.841797,649.384115 726.841797,637.925781 L726.841797,637.925781 L726.841797,634.117188 C726.906901,622.789062 729.022786,614.341797 733.189453,608.775391 C737.35612,603.208984 743.280599,600.425781 750.962891,600.425781 C756.952474,600.425781 761.884115,602.378906 765.757812,606.285156 C769.63151,610.191406 771.698568,615.171875 771.958984,621.226562 L771.958984,621.226562 L794.322266,621.226562 C793.931641,609.3125 789.78125,599.693359 781.871094,592.369141 C773.960938,585.044922 763.723307,581.382812 751.158203,581.382812 C736.314453,581.382812 724.595703,586.216797 716.001953,595.884766 C707.408203,605.552734 703.111328,618.427083 703.111328,634.507812 L703.111328,634.507812 L703.111328,636.949219 C703.111328,653.811198 707.440755,667.027344 716.099609,676.597656 C724.758464,686.167969 736.477214,690.953125 751.255859,690.953125 Z M844.908203,690.953125 C855.845703,690.953125 865.090495,687.014323 872.642578,679.136719 C873.423828,683.69401 874.335286,686.981771 875.376953,689 L875.376953,689 L899.595703,689 L899.595703,687.339844 C896.926432,681.675781 895.591797,674.091146 895.591797,664.585938 L895.591797,664.585938 L895.591797,616.929688 C895.396484,605.666667 891.620443,596.926432 884.263672,590.708984 C876.906901,584.491536 867.04362,581.382812 854.673828,581.382812 C846.535807,581.382812 839.16276,582.815104 832.554688,585.679688 C825.946615,588.544271 820.722005,592.499349 816.880859,597.544922 C813.039714,602.590495 811.119141,608.010417 811.119141,613.804688 L811.119141,613.804688 L834.849609,613.804688 C834.849609,609.638021 836.57487,606.203776 840.025391,603.501953 C843.475911,600.80013 847.902995,599.449219 853.306641,599.449219 C859.556641,599.449219 864.211589,601.093099 867.271484,604.380859 C870.33138,607.66862 871.861328,612.046875 871.861328,617.515625 L871.861328,617.515625 L871.861328,624.449219 L857.310547,624.449219 C841.750651,624.449219 829.78776,627.460286 821.421875,633.482422 C813.05599,639.504557 808.873047,648.147135 808.873047,659.410156 C808.873047,668.329427 812.225911,675.816406 818.931641,681.871094 C825.63737,687.925781 834.296224,690.953125 844.908203,690.953125 Z M849.302734,671.910156 C844.224609,671.910156 840.171875,670.559245 837.144531,667.857422 C834.117188,665.155599 832.603516,661.526042 832.603516,656.96875 C832.603516,651.369792 834.817057,647.040365 839.244141,643.980469 C843.671224,640.920573 850.279297,639.390625 859.068359,639.390625 L859.068359,639.390625 L871.861328,639.390625 L871.861328,659.3125 C869.777995,663.153646 866.669271,666.213542 862.535156,668.492188 C858.401042,670.770833 853.990234,671.910156 849.302734,671.910156 Z M945.689453,689 L945.689453,539 L921.958984,539 L921.958984,689 L945.689453,689 Z M1018.05273,690.953125 C1026.8418,690.953125 1034.76823,689.211589 1041.83203,685.728516 C1048.89583,682.245443 1054.54362,677.346354 1058.77539,671.03125 L1058.77539,671.03125 L1045.98242,658.824219 C1039.14648,667.613281 1030.29232,672.007812 1019.41992,672.007812 C1011.67253,672.007812 1005.24349,669.46875 1000.13281,664.390625 C995.022135,659.3125 992.108724,652.411458 991.392578,643.6875 L991.392578,643.6875 L1060.43555,643.6875 L1060.43555,634.117188 C1060.43555,617.320312 1056.51302,604.332031 1048.66797,595.152344 C1040.82292,585.972656 1029.70638,581.382812 1015.31836,581.382812 C1006.26888,581.382812 998.065755,583.69401 990.708984,588.316406 C983.352214,592.938802 977.639323,599.400391 973.570312,607.701172 C969.501302,616.001953 967.466797,625.425781 967.466797,635.972656 L967.466797,635.972656 L967.466797,638.902344 C967.466797,654.657552 972.138021,667.271484 981.480469,676.744141 C990.822917,686.216797 1003.01367,690.953125 1018.05273,690.953125 Z M1036.99805,626.304688 L991.783203,626.304688 C992.889974,618.166667 995.445312,611.81901 999.449219,607.261719 C1003.45312,602.704427 1008.71029,600.425781 1015.2207,600.425781 C1021.79622,600.425781 1026.93945,602.460286 1030.65039,606.529297 C1034.36133,610.598307 1036.47721,616.604167 1036.99805,624.546875 L1036.99805,624.546875 L1036.99805,626.304688 Z M1133.87305,690.953125 C1150.08398,690.953125 1163.07227,686.705078 1172.83789,678.208984 C1182.60352,669.712891 1188.20247,657.880208 1189.63477,642.710938 L1189.63477,642.710938 L1165.02539,642.710938 C1163.72331,652.867188 1160.63086,660.126302 1155.74805,664.488281 C1150.86523,668.85026 1143.57357,671.03125 1133.87305,671.03125 C1123.26107,671.03125 1115.20443,666.994792 1109.70312,658.921875 C1104.20182,650.848958 1101.45117,639.130208 1101.45117,623.765625 L1101.45117,623.765625 L1101.45117,611.167969 C1101.58138,595.998698 1104.52734,584.491536 1110.28906,576.646484 C1116.05078,568.801432 1124.30273,564.878906 1135.04492,564.878906 C1144.28971,564.878906 1151.30469,567.141276 1156.08984,571.666016 C1160.875,576.190755 1163.85352,583.563802 1165.02539,593.785156 L1165.02539,593.785156 L1189.63477,593.785156 C1188.07227,578.22526 1182.50586,566.18099 1172.93555,557.652344 C1163.36523,549.123698 1150.73503,544.859375 1135.04492,544.859375 C1123.39128,544.859375 1113.12109,547.626302 1104.23438,553.160156 C1095.34766,558.69401 1088.52799,566.571615 1083.77539,576.792969 C1079.02279,587.014323 1076.64648,598.830729 1076.64648,612.242188 L1076.64648,612.242188 L1076.64648,625.523438 C1076.8418,638.609375 1079.2832,650.10026 1083.9707,659.996094 C1088.6582,669.891927 1095.3151,677.525391 1103.94141,682.896484 C1112.56771,688.267578 1122.54492,690.953125 1133.87305,690.953125 Z M1232.79883,689 L1232.79883,613.511719 C1237.48633,605.048177 1244.58268,600.816406 1254.08789,600.816406 C1260.20768,600.816406 1264.84635,602.330078 1268.00391,605.357422 C1271.16146,608.384766 1272.74023,613.544271 1272.74023,620.835938 L1272.74023,620.835938 L1272.74023,689 L1296.4707,689 L1296.4707,619.957031 C1296.14518,594.240885 1284.7194,581.382812 1262.19336,581.382812 C1250.3444,581.382812 1240.54622,585.875 1232.79883,594.859375 L1232.79883,594.859375 L1232.79883,539 L1209.06836,539 L1209.06836,689 L1232.79883,689 Z M1353.11133,690.953125 C1364.04883,690.953125 1373.29362,687.014323 1380.8457,679.136719 C1381.62695,683.69401 1382.53841,686.981771 1383.58008,689 L1383.58008,689 L1407.79883,689 L1407.79883,687.339844 C1405.12956,681.675781 1403.79492,674.091146 1403.79492,664.585938 L1403.79492,664.585938 L1403.79492,616.929688 C1403.59961,605.666667 1399.82357,596.926432 1392.4668,590.708984 C1385.11003,584.491536 1375.24674,581.382812 1362.87695,581.382812 C1354.73893,581.382812 1347.36589,582.815104 1340.75781,585.679688 C1334.14974,588.544271 1328.92513,592.499349 1325.08398,597.544922 C1321.24284,602.590495 1319.32227,608.010417 1319.32227,613.804688 L1319.32227,613.804688 L1343.05273,613.804688 C1343.05273,609.638021 1344.77799,606.203776 1348.22852,603.501953 C1351.67904,600.80013 1356.10612,599.449219 1361.50977,599.449219 C1367.75977,599.449219 1372.41471,601.093099 1375.47461,604.380859 C1378.53451,607.66862 1380.06445,612.046875 1380.06445,617.515625 L1380.06445,617.515625 L1380.06445,624.449219 L1365.51367,624.449219 C1349.95378,624.449219 1337.99089,627.460286 1329.625,633.482422 C1321.25911,639.504557 1317.07617,648.147135 1317.07617,659.410156 C1317.07617,668.329427 1320.42904,675.816406 1327.13477,681.871094 C1333.84049,687.925781 1342.49935,690.953125 1353.11133,690.953125 Z M1357.50586,671.910156 C1352.42773,671.910156 1348.375,670.559245 1345.34766,667.857422 C1342.32031,665.155599 1340.80664,661.526042 1340.80664,656.96875 C1340.80664,651.369792 1343.02018,647.040365 1347.44727,643.980469 C1351.87435,640.920573 1358.48242,639.390625 1367.27148,639.390625 L1367.27148,639.390625 L1380.06445,639.390625 L1380.06445,659.3125 C1377.98112,663.153646 1374.8724,666.213542 1370.73828,668.492188 C1366.60417,670.770833 1362.19336,671.910156 1357.50586,671.910156 Z M1452.33008,689 L1452.33008,612.4375 C1456.30143,604.690104 1463.03971,600.816406 1472.54492,600.816406 C1484.91471,600.816406 1491.26237,607.033854 1491.58789,619.46875 L1491.58789,619.46875 L1491.58789,689 L1515.31836,689 L1515.2207,616.539062 C1516.58789,611.851562 1518.98047,608.059245 1522.39844,605.162109 C1525.81641,602.264974 1530.22721,600.816406 1535.63086,600.816406 C1542.40169,600.816406 1547.25195,602.378906 1550.18164,605.503906 C1553.11133,608.628906 1554.57617,613.544271 1554.57617,620.25 L1554.57617,620.25 L1554.57617,689 L1578.30664,689 L1578.30664,619.566406 C1578.17643,607.001302 1575.26302,597.496094 1569.56641,591.050781 C1563.86979,584.605469 1555.19466,581.382812 1543.54102,581.382812 C1529.60872,581.382812 1518.80143,586.786458 1511.11914,597.59375 C1505.91081,586.786458 1496.24284,581.382812 1482.11523,581.382812 C1469.22461,581.382812 1459.06836,585.71224 1451.64648,594.371094 L1451.64648,594.371094 L1450.96289,583.335938 L1428.59961,583.335938 L1428.59961,689 L1452.33008,689 Z M1626.35352,729.625 L1626.35352,679.527344 C1633.31966,687.144531 1642.59701,690.953125 1654.18555,690.953125 C1666.68555,690.953125 1676.64648,686.086589 1684.06836,676.353516 C1691.49023,666.620443 1695.20117,653.583333 1695.20117,637.242188 L1695.20117,637.242188 L1695.20117,635.777344 C1695.20117,618.720052 1691.53906,605.389974 1684.21484,595.787109 C1676.89062,586.184245 1666.7832,581.382812 1653.89258,581.382812 C1641.91341,581.382812 1632.44076,585.614583 1625.47461,594.078125 L1625.47461,594.078125 L1624.49805,583.335938 L1602.62305,583.335938 L1602.62305,729.625 L1626.35352,729.625 Z M1647.44727,672.007812 C1637.68164,672.007812 1630.65039,667.90625 1626.35352,659.703125 L1626.35352,659.703125 L1626.35352,612.828125 C1630.58529,604.820312 1637.55143,600.816406 1647.25195,600.816406 C1655.06445,600.816406 1661.07031,603.908854 1665.26953,610.09375 C1669.46875,616.278646 1671.56836,624.644531 1671.56836,635.191406 C1671.56836,647.561198 1669.4362,656.789714 1665.17188,662.876953 C1660.90755,668.964193 1654.99935,672.007812 1647.44727,672.007812 Z" id="ScaleChamp" fill="#FFFFFF" fill-rule="nonzero"></path>
      <path d="M382.369,517.324 L363.474193,546.362899 L364.957,547.324 L294,547.324595 L345.666,625.174 L345.782,625.001 L408.295,723.583 L389.803547,752.324595 L234,517.324595 L382.369,517.324 Z M418.788893,517 L419.269,517.324 L541,517.324595 L428.315,692.467 L428.361266,692.357928 L408.096,660.523 L481,547.324595 L441.541,547.324 L387.205,627.704 L366.229,594.753 L398.29,547.324 L397.38,547.324 L416.901,517.324 L418.569,517.324 L418.788893,517 Z" id="Combined-Shape" fill="white"></path>
    </g>
  </g>
</svg>
