<svg height="512pt" viewBox="-16 0 512 512.001" width="512pt" xmlns="http://www.w3.org/2000/svg"><path d="m440.964844 369.300781v-78.453125c0-5.359375-2.859375-10.3125-7.5-12.992187l-117.765625-67.992188v-68.742187c25.46875-6.660156 44.324219-29.867188 44.324219-57.398438 0-32.714844-26.613282-59.328125-59.324219-59.328125-16.484375 0-31.414063 6.765625-42.175781 17.65625l-69.351563-40.039062c-4.640625-2.683594-10.359375-2.683594-15 0l-70.351563 40.617187c-10.878906-12.34375-26.785156-20.152344-44.496093-20.152344-32.710938 0-59.324219 26.613282-59.324219 59.328126 0 28.714843 20.511719 52.722656 47.648438 58.164062v81.1875c0 5.359375 2.859374 10.3125 7.5 12.992188l73.527343 42.453124c-1 4.308594-1.542969 8.792969-1.542969 13.402344 0 28.050782 19.578126 51.601563 45.785157 57.746094v80.53125c0 5.359375 2.859375 10.3125 7.5 12.992188l119.023437 68.71875c2.320313 1.339843 4.90625 2.007812 7.5 2.007812 2.585938 0 5.179688-.667969 7.5-2.007812l67.960938-39.238282c10.199218 8.277344 23.1875 13.25 37.316406 13.25 32.710938 0 59.324219-26.613281 59.324219-59.324218.003906-25.226563-15.832031-46.816407-38.078125-55.378907zm-21.242188 84.703125c-16.171875 0-29.324218-13.15625-29.324218-29.324218 0-16.171876 13.152343-29.324219 29.324218-29.324219 16.167969 0 29.324219 13.152343 29.324219 29.324219 0 16.167968-13.15625 29.324218-29.324219 29.324218zm-216.804687-34.382812v-72.632813c24.726562-7.15625 42.863281-29.984375 42.863281-56.984375 0-4.910156-.609375-9.675781-1.738281-14.238281l62.898437-36.316406 104.023438 60.058593v66.5c-28.574219 4.246094-50.570313 28.933594-50.570313 58.671876 0 7.675781 1.480469 15.007812 4.148438 21.746093l-57.601563 33.253907zm-45.785157-129.617188c0-16.171875 13.15625-29.324218 29.324219-29.324218s29.324219 13.152343 29.324219 29.324218c0 16.167969-13.15625 29.324219-29.324219 29.324219s-29.324219-13.15625-29.324219-29.324219zm-127.132812-208.199218c0-16.171876 13.15625-29.328126 29.324219-29.328126 16.171875 0 29.328125 13.15625 29.328125 29.328126 0 16.167968-13.15625 29.324218-29.328125 29.324218-16.167969 0-29.324219-13.15625-29.324219-29.324218zm47.648438 56.414062c23.769531-7.742188 41-30.097656 41-56.414062 0-4.234376-.453126-8.363282-1.300782-12.34375l64.324219-37.140626 61.824219 35.695313c-1.375 5.007813-2.125 10.269531-2.125 15.707031 0 27.53125 18.851562 50.738282 44.324218 57.398438v71.375l-58.9375 34.027344c-10.589843-9.824219-24.753906-15.84375-40.300781-15.84375-17.328125 0-32.941406 7.46875-43.796875 19.351562l-65.011718-37.535156zm223.050781-83.824219c16.167969 0 29.324219 13.15625 29.324219 29.328125 0 16.167969-13.15625 29.324219-29.324219 29.324219-16.171875 0-29.328125-13.15625-29.328125-29.324219 0-16.171875 13.15625-29.328125 29.328125-29.328125zm0 0"/></svg>
