<svg fill="#e2e8f0" enable-background="new 0 0 511.972 511.972" viewBox="0 0 511.972 511.972" xmlns="http://www.w3.org/2000/svg">
  <g>
    <path
      d="m393.816 298.584v-298.584h-372.833v448.385c0 35.062 28.525 63.586 63.586 63.586h342.833c35.062 0 63.586-28.525 63.586-63.586v-149.801zm-30 149.801c0 12.324 3.536 23.833 9.629 33.586h-288.876c-18.52 0-33.586-15.067-33.586-33.586v-418.385h312.833zm97.173 0c0 18.52-15.067 33.586-33.586 33.586s-33.586-15.067-33.586-33.586v-119.801h67.173v119.801z"/>
    <path d="m330.318 60.975h-245.838v90.004h245.838zm-30 60.004h-185.838v-30.004h185.838z"/>
    <path d="m222.4 180.982h107.919v30h-107.919z"/>
    <path d="m84.479 180.982h107.919v30h-107.919z"/>
    <path d="m222.4 240.992h107.919v30h-107.919z"/>
    <path d="m84.479 240.992h107.919v30h-107.919z"/>
    <path d="m222.4 300.99h107.919v30h-107.919z"/>
    <path d="m222.4 360.994h107.919v30h-107.919z"/>
    <path d="m222.4 420.997h107.919v30h-107.919z"/>
    <path d="m84.479 300.99h107.919v30h-107.919z"/>
    <path d="m84.48 450.997h107.917v-90.003h-107.917zm30-60.003h47.917v30.003h-47.917z"/>
  </g>
</svg>
